<svg xmlns="http://www.w3.org/2000/svg" width="175.57" height="179.55" viewBox="0 0 175.57 179.55"><path d="M255.1,77.27" transform="translate(-13.06 -11.39)" fill="none" stroke="#bf1b1b" stroke-miterlimit="10"/><path d="M117.49,175.92A35,35,0,0,0,107,183.85a36,36,0,0,0-5,7.1,38.52,38.52,0,0,0-5-7.19,36.67,36.67,0,0,0-9.85-7.92Z" transform="translate(-13.06 -11.39)" fill="#010101"/><ellipse cx="88.81" cy="95.36" rx="54.65" ry="74.4" fill="#010101"/><path d="M101.87,76.71C85.61,76.71,70.69,73.07,59,67A67.57,67.57,0,0,1,68.8,52.51,99,99,0,0,0,101.87,58a99,99,0,0,0,33.07-5.48A67.2,67.2,0,0,1,144.72,67C133.06,73.06,118.13,76.71,101.87,76.71Z" transform="translate(-13.06 -11.39)" fill="#efca3a"/><path d="M101.87,163.68a91.56,91.56,0,0,0,36.61-7.26c-9.06,13.52-22.11,22-36.61,22s-27.55-8.48-36.61-22A91.52,91.52,0,0,0,101.87,163.68Z" transform="translate(-13.06 -11.39)" fill="#efca3a"/><path d="M153.62,107.69a92.37,92.37,0,0,1-.6,10.61c-12.33,9.19-30.67,15-51.15,15s-38.83-5.83-51.16-15a92.56,92.56,0,0,1-.59-10.62,94.2,94.2,0,0,1,1.12-14.61c12.34,9,30.44,14.61,50.63,14.61s38.29-5.66,50.62-14.62A94.32,94.32,0,0,1,153.62,107.69Z" transform="translate(-13.06 -11.39)" fill="#efca3a"/><path d="M55.74,87c-6.21,4.4-15.13,6.28-24.47,4.42a36.3,36.3,0,0,1-11.89-4.6,17.29,17.29,0,0,1-.54-21.32A15,15,0,0,1,40.7,63C45.35,66.93,53.19,78.16,55.74,87Z" transform="translate(-13.06 -11.39)" fill="#fcfcfc"/><path d="M21.47,89.12a17.13,17.13,0,0,1-4.28-22.89,15,15,0,0,1,21.57-4.54C45.9,66.76,60.82,86.24,56,93.82S28.6,94.19,21.47,89.12Z" transform="translate(-13.06 -11.39)" fill="#bee2f8"/><path d="M55.74,87c-6.21,4.4-15.13,6.28-24.47,4.42a36.3,36.3,0,0,1-11.89-4.6,17.29,17.29,0,0,1-.54-21.32A15,15,0,0,1,40.7,63C45.35,66.93,53.19,78.16,55.74,87Z" transform="translate(-13.06 -11.39)" fill="#fcfcfc"/><path d="M21.47,89.12a17.13,17.13,0,0,1-4.28-22.89,15,15,0,0,1,21.57-4.54C45.9,66.76,60.82,86.24,56,93.82S28.6,94.19,21.47,89.12Z" transform="translate(-13.06 -11.39)" fill="none" stroke="#000" stroke-miterlimit="10" stroke-width="3"/><path d="M53,87.13c-1.53,6.13-5.95,12.25-12.48,16.38a29.06,29.06,0,0,1-9.43,3.91A12.89,12.89,0,0,1,20.19,94.94c-.33-7.29,5-13.46,11.83-13.81C36.79,80.89,47.08,83.23,53,87.13Z" transform="translate(-13.06 -11.39)" fill="#fcfcfc"/><path d="M33.51,107.61c-6.81,1-13.06-4.11-14-11.34s3.87-13.86,10.68-14.82S55.69,83.8,56.6,91,40.32,106.64,33.51,107.61Z" transform="translate(-13.06 -11.39)" fill="#bee2f8"/><path d="M53,87.13c-1.53,6.13-5.95,12.25-12.48,16.38a29.06,29.06,0,0,1-9.43,3.91A12.89,12.89,0,0,1,20.19,94.94c-.33-7.29,5-13.46,11.83-13.81C36.79,80.89,47.08,83.23,53,87.13Z" transform="translate(-13.06 -11.39)" fill="#fcfcfc"/><path d="M33.51,107.61c-6.81,1-13.06-4.11-14-11.34s3.87-13.86,10.68-14.82S55.69,83.8,56.6,91,40.32,106.64,33.51,107.61Z" transform="translate(-13.06 -11.39)" fill="none" stroke="#000" stroke-miterlimit="10" stroke-width="3"/><path d="M146,86c6.21,4.4,15.13,6.28,24.47,4.42a36.3,36.3,0,0,0,11.89-4.6,17.29,17.29,0,0,0,.54-21.32A15,15,0,0,0,161,62C156.34,65.93,148.5,77.16,146,86Z" transform="translate(-13.06 -11.39)" fill="#fcfcfc"/><path d="M180.23,88.12a17.13,17.13,0,0,0,4.27-22.89,15,15,0,0,0-21.57-4.54c-7.14,5.07-22.06,24.55-17.28,32.13S173.09,93.19,180.23,88.12Z" transform="translate(-13.06 -11.39)" fill="#bee2f8"/><path d="M146,86c6.21,4.4,15.13,6.28,24.47,4.42a36.3,36.3,0,0,0,11.89-4.6,17.29,17.29,0,0,0,.54-21.32A15,15,0,0,0,161,62C156.34,65.93,148.5,77.16,146,86Z" transform="translate(-13.06 -11.39)" fill="#fcfcfc"/><path d="M180.23,88.12a17.13,17.13,0,0,0,4.27-22.89,15,15,0,0,0-21.57-4.54c-7.14,5.07-22.06,24.55-17.28,32.13S173.09,93.19,180.23,88.12Z" transform="translate(-13.06 -11.39)" fill="none" stroke="#000" stroke-miterlimit="10" stroke-width="3"/><path d="M148.65,88.13c1.53,6.13,5.95,12.25,12.48,16.38a29.06,29.06,0,0,0,9.43,3.91A12.89,12.89,0,0,0,181.5,95.94c.33-7.29-5-13.46-11.83-13.81C164.9,81.89,154.61,84.23,148.65,88.13Z" transform="translate(-13.06 -11.39)" fill="#fcfcfc"/><path d="M168.18,108.61c6.81,1,13.06-4.11,14-11.34s-3.87-13.86-10.68-14.82S146,84.8,145.09,92,161.37,107.64,168.18,108.61Z" transform="translate(-13.06 -11.39)" fill="#bee2f8"/><path d="M148.65,88.13c1.53,6.13,5.95,12.25,12.48,16.38a29.06,29.06,0,0,0,9.43,3.91A12.89,12.89,0,0,0,181.5,95.94c.33-7.29-5-13.46-11.83-13.81C164.9,81.89,154.61,84.23,148.65,88.13Z" transform="translate(-13.06 -11.39)" fill="#fcfcfc"/><path d="M168.18,108.61c6.81,1,13.06-4.11,14-11.34s-3.87-13.86-10.68-14.82S146,84.8,145.09,92,161.37,107.64,168.18,108.61Z" transform="translate(-13.06 -11.39)" fill="none" stroke="#000" stroke-miterlimit="10" stroke-width="3"/><path d="M111.7,25.83" transform="translate(-13.06 -11.39)" fill="none" stroke="#000" stroke-miterlimit="10"/><path d="M113.68,40.26s-5.32-25.35,17.49-24.84" transform="translate(-13.06 -11.39)" fill="none" stroke="#000" stroke-miterlimit="10" stroke-width="3"/><circle cx="120.14" cy="4.02" r="4.02"/><path d="M90,40.26s5.32-25.35-17.49-24.84" transform="translate(-13.06 -11.39)" fill="none" stroke="#000" stroke-miterlimit="10" stroke-width="3"/><circle cx="57.43" cy="4.02" r="4.02"/></svg>